<svg width="48" height="59" viewBox="0 0 48 59" fill="none" xmlns="http://www.w3.org/2000/svg">
<path fill-rule="evenodd" clip-rule="evenodd" d="M3 1.07031C2.17157 1.07031 1.5 1.74189 1.5 2.57031V55.5703C1.5 56.3987 2.17157 57.0703 3 57.0703H45C45.8284 57.0703 46.5 56.3987 46.5 55.5703V2.57031C46.5 1.74188 45.8284 1.07031 45 1.07031H35.7676L34.5098 2.95706C34.0461 3.65256 33.2655 4.07031 32.4296 4.07031H15.2361C14.2891 4.07031 13.4235 3.53531 13 2.68835L12.191 1.07031H3ZM13.309 1.07031L13.8944 2.24113C14.1485 2.74931 14.6679 3.07031 15.2361 3.07031H32.4296C32.9312 3.07031 33.3995 2.81966 33.6777 2.40236L34.5657 1.07031H13.309ZM0.5 2.57031C0.5 1.1896 1.61929 0.0703125 3 0.0703125H45C46.3807 0.0703125 47.5 1.1896 47.5 2.57031V55.5703C47.5 56.951 46.3807 58.0703 45 58.0703H3C1.61929 58.0703 0.5 56.951 0.5 55.5703V2.57031ZM5.5 14.5703C5.5 14.2942 5.72386 14.0703 6 14.0703L42 14.0703C42.2761 14.0703 42.5 14.2942 42.5 14.5703C42.5 14.8465 42.2761 15.0703 42 15.0703L6 15.0703C5.72386 15.0703 5.5 14.8465 5.5 14.5703ZM5.5 22.5703C5.5 22.2942 5.72386 22.0703 6 22.0703L42 22.0703C42.2761 22.0703 42.5 22.2942 42.5 22.5703C42.5 22.8465 42.2761 23.0703 42 23.0703L6 23.0703C5.72386 23.0703 5.5 22.8465 5.5 22.5703ZM5.5 31.0703C5.5 30.7942 5.72386 30.5703 6 30.5703L42 30.5703C42.2761 30.5703 42.5 30.7942 42.5 31.0703C42.5 31.3465 42.2761 31.5703 42 31.5703L6 31.5703C5.72386 31.5703 5.5 31.3465 5.5 31.0703ZM5.5 40.0703C5.5 39.7942 5.72386 39.5703 6 39.5703L42 39.5703C42.2761 39.5703 42.5 39.7942 42.5 40.0703C42.5 40.3465 42.2761 40.5703 42 40.5703L6 40.5703C5.72386 40.5703 5.5 40.3465 5.5 40.0703Z" fill="#1D8119"/>
</svg>
