<svg width="59" height="38" viewBox="0 0 59 38" fill="none" xmlns="http://www.w3.org/2000/svg">
<path fill-rule="evenodd" clip-rule="evenodd" d="M27.2478 1.57031C25.4311 1.57031 23.9583 3.04306 23.9583 4.85979V29.4914H22.9583V5.36674C13.4555 5.63145 5.83333 13.418 5.83333 22.9848V29.2808C5.83333 31.2138 7.40034 32.7808 9.33333 32.7808H50.6333C52.5663 32.7808 54.1333 31.2138 54.1333 29.2808V22.9848C54.1333 13.418 46.5111 5.63145 37.0083 5.36674V29.4914H36.0083V4.85979C36.0083 3.04306 34.5356 1.57031 32.7189 1.57031H27.2478ZM36.9802 4.36565C36.7351 2.22938 34.9207 0.570312 32.7189 0.570312H27.2478C25.0459 0.570312 23.2315 2.22938 22.9865 4.36565C12.9182 4.616 4.83333 12.8562 4.83333 22.9848V27.1198C2.12227 27.3718 0 29.653 0 32.43V35.6349C0 36.7038 0.866511 37.5703 1.93541 37.5703H57.0646C58.1335 37.5703 59 36.7038 59 35.6349V31.4633C59 29.2207 57.3095 27.373 55.1333 27.1249V22.9848C55.1333 12.8562 47.0484 4.616 36.9802 4.36565ZM55.1333 28.1335V29.2808C55.1333 31.7661 53.1186 33.7808 50.6333 33.7808H9.33333C6.84805 33.7808 4.83333 31.7661 4.83333 29.2808V28.1252C2.67561 28.3731 1 30.2058 1 32.43V35.6349C1 36.1515 1.4188 36.5703 1.93541 36.5703H57.0646C57.5812 36.5703 58 36.1515 58 35.6349V31.4633C58 29.7738 56.7556 28.375 55.1333 28.1335Z" fill="#31912D"/>
</svg>
