<svg width="58" height="62" viewBox="0 0 58 62" fill="none" xmlns="http://www.w3.org/2000/svg">
<path fill-rule="evenodd" clip-rule="evenodd" d="M26.6906 2.68189C26.6906 2.06798 27.1883 1.57031 27.8022 1.57031H30.2159C30.8298 1.57031 31.3274 2.06798 31.3274 2.68189V13.1571H32.3274V3.19867C36.1419 3.45567 39.1564 6.63122 39.1564 10.5108V12.3513V12.8513H39.6564H40.8266V15.8803H16.7739V12.8513H18.3617H18.8617V12.3513V10.5108C18.8617 6.63122 21.8761 3.45567 25.6906 3.19867V13.1571H26.6906V2.68189ZM30.2159 0.570312C31.2139 0.570312 32.0503 1.26277 32.2707 2.19348C36.6646 2.42386 40.1564 6.05957 40.1564 10.5108V11.8513H41.2266C41.5579 11.8513 41.8266 12.12 41.8266 12.4513V16.2803C41.8266 16.6116 41.5579 16.8803 41.2266 16.8803H38.9821C39.1399 18.6075 38.8567 20.3516 38.1527 21.9469C37.3348 23.8003 35.9857 25.3695 34.276 26.4562C33.7645 26.7812 33.2276 27.0588 32.6721 27.2869C39.3237 28.4858 44.3896 34.2472 44.5134 41.2145L45.4734 41.1255C45.8379 41.0917 46.1548 40.8615 46.2995 40.5253L47.9686 36.6495C48.3157 35.8435 49.4585 35.8435 49.8055 36.6495L51.4746 40.5253C51.6194 40.8615 51.9363 41.0917 52.3007 41.1255L56.5026 41.5152C57.3764 41.5962 57.7295 42.683 57.0702 43.2622L53.8999 46.0473C53.6249 46.2888 53.5039 46.6614 53.5844 47.0184L54.5122 51.1351C54.7051 51.9911 53.7806 52.6628 53.0261 52.2148L49.3977 50.0603C49.0829 49.8734 48.6913 49.8734 48.3765 50.0603L44.7481 52.2148C43.9935 52.6628 43.069 51.9911 43.262 51.1351L44.1898 47.0184C44.2703 46.6614 44.1492 46.2888 43.8743 46.0473L40.7039 43.2622C40.0447 42.683 40.3978 41.5962 41.2716 41.5152L43.5147 41.3071C43.4244 33.9742 37.4519 28.0577 30.0976 28.0577H25.9222C18.611 28.0577 12.6655 33.905 12.5073 41.1783L16.14 41.5152C17.0138 41.5962 17.3669 42.683 16.7077 43.2622L13.5373 46.0473C13.2624 46.2888 13.1413 46.6614 13.2218 47.0184L14.1496 51.1351C14.3426 51.9911 13.4181 52.6628 12.6635 52.2148L9.03507 50.0603C8.72035 49.8734 8.32868 49.8734 8.01396 50.0603L4.3855 52.2148C3.63097 52.6628 2.70648 51.9911 2.89941 51.1351L3.82722 47.0184C3.9077 46.6614 3.78666 46.2888 3.51168 46.0473L0.341361 43.2622C-0.317901 42.683 0.0352248 41.5962 0.908996 41.5152L5.11087 41.1255C5.47533 41.0917 5.7922 40.8615 5.93697 40.5253L7.60606 36.6495C7.95314 35.8435 9.09588 35.8435 9.44297 36.6495L11.1121 40.5253C11.1958 40.7198 11.3373 40.8789 11.5122 40.985C11.7553 33.7189 17.3747 27.8151 24.5189 27.1251C23.954 26.8665 23.4112 26.5559 22.8979 26.1957C21.2397 25.032 19.9639 23.4027 19.2316 21.5138C18.8707 20.5827 18.6625 19.7641 18.605 18.922C18.5599 18.2617 18.6085 17.6025 18.736 16.8803H16.3739C16.0426 16.8803 15.7739 16.6116 15.7739 16.2803V12.4513C15.7739 12.12 16.0426 11.8513 16.3739 11.8513H17.8617V10.5108C17.8617 6.05957 21.3535 2.42386 25.7474 2.19348C25.9678 1.26277 26.8041 0.570312 27.8022 0.570312H30.2159ZM19.7529 16.8803C19.6114 17.6162 19.5609 18.2433 19.6026 18.8539C19.6515 19.5691 19.8285 20.2868 20.164 21.1524C20.8248 22.8568 21.9761 24.3271 23.4724 25.3772C24.9687 26.4273 26.7428 27.0101 28.5704 27.052C30.3979 27.0938 32.1968 26.5927 33.7396 25.6122C35.2824 24.6316 36.4998 23.2156 37.2378 21.5432C37.8854 20.0757 38.1384 18.4686 37.9775 16.8803H19.7529ZM31.692 43.9793L28.7058 37.045L25.7196 43.9793C25.43 44.6516 24.7963 45.1121 24.0674 45.1797L16.5497 45.8769L22.2218 50.8598C22.7718 51.3429 23.0138 52.0879 22.8529 52.8021L21.1929 60.1673L27.6847 56.3126C28.3141 55.9388 29.0975 55.9388 29.7269 56.3126L36.2187 60.1673L34.5587 52.8021C34.3978 52.0879 34.6398 51.3429 35.1898 50.8598L40.8619 45.8769L33.3442 45.1797C32.6153 45.1121 31.9816 44.6516 31.692 43.9793ZM29.6243 36.6495C29.2772 35.8435 28.1344 35.8435 27.7873 36.6495L24.8011 43.5838C24.6564 43.9199 24.3395 44.1502 23.975 44.184L16.4574 44.8812C15.5836 44.9622 15.2305 46.0491 15.8897 46.6282L21.5618 51.6111C21.8368 51.8526 21.9578 52.2251 21.8774 52.5822L20.2174 59.9474C20.0245 60.8035 20.949 61.4751 21.7035 61.0271L28.1952 57.1724C28.51 56.9855 28.9016 56.9855 29.2164 57.1724L35.7081 61.0271C36.4627 61.4751 37.3871 60.8035 37.1942 59.9474L35.5342 52.5822C35.4538 52.2251 35.5748 51.8526 35.8498 51.6111L41.5219 46.6282C42.1811 46.0491 41.828 44.9622 40.9542 44.8812L33.4366 44.184C33.0721 44.1502 32.7552 43.9199 32.6105 43.5838L29.6243 36.6495ZM48.8871 37.045L50.5562 40.9208C50.8457 41.5932 51.4795 42.0536 52.2084 42.1212L56.4103 42.5109L53.2399 45.296C52.69 45.7791 52.4479 46.5241 52.6089 47.2383L53.5367 51.3549L49.9082 49.2004C49.2788 48.8267 48.4954 48.8267 47.866 49.2004L44.2375 51.3549L45.1653 47.2383C45.3263 46.5241 45.0842 45.7791 44.5342 45.296L41.3639 42.5109L45.5658 42.1212C46.2947 42.0536 46.9285 41.5932 47.218 40.9208L48.8871 37.045ZM10.1936 40.9208L8.52451 37.045L6.85543 40.9208C6.56588 41.5932 5.93214 42.0536 5.20322 42.1212L1.00135 42.5109L4.17167 45.296C4.72164 45.7791 4.9637 46.5241 4.80275 47.2383L3.87494 51.3549L7.50339 49.2004C8.13284 48.8267 8.91619 48.8267 9.54563 49.2004L13.1741 51.3549L12.2463 47.2383C12.0853 46.5241 12.3274 45.7791 12.8774 45.296L16.0477 42.5109L11.8458 42.1212C11.1169 42.0536 10.4831 41.5932 10.1936 40.9208Z" fill="#31912D"/>
</svg>
