<svg width="59" height="52" viewBox="0 0 59 52" fill="none" xmlns="http://www.w3.org/2000/svg">
<path fill-rule="evenodd" clip-rule="evenodd" d="M31.4003 1.07031C31.4003 0.79417 31.1764 0.570312 30.9003 0.570312C30.6242 0.570312 30.4003 0.79417 30.4003 1.07031V11.2703C30.4003 11.5464 30.6242 11.7703 30.9003 11.7703C31.1764 11.7703 31.4003 11.5464 31.4003 11.2703V1.07031ZM17.0203 5.53031C16.8546 5.3094 16.5412 5.26462 16.3203 5.43031C16.0994 5.59599 16.0546 5.9094 16.2203 6.13031L20.3003 11.5703C20.466 11.7912 20.7794 11.836 21.0003 11.6703C21.2212 11.5046 21.266 11.1912 21.1003 10.9703L17.0203 5.53031ZM44.9003 6.13031C45.066 5.9094 45.0212 5.59599 44.8003 5.43031C44.5794 5.26462 44.266 5.3094 44.1003 5.53031L40.0203 10.9703C39.8546 11.1912 39.8994 11.5046 40.1203 11.6703C40.3412 11.836 40.6546 11.7912 40.8203 11.5703L44.9003 6.13031ZM0.296875 26.1907C15.8521 9.047 42.7745 8.93101 58.4629 25.953C43.1252 43.577 15.7681 43.6976 0.296875 26.1907ZM57.1065 25.9722C51.1469 32.5051 43.4461 36.433 35.3945 37.7491C39.5862 35.6134 42.4572 31.257 42.4572 26.23C42.4572 21.2039 39.5873 16.8482 35.3968 14.7121C43.3808 15.9449 51.0489 19.6962 57.1065 25.9722ZM16.6172 26.23C16.6172 31.3524 19.5982 35.7786 23.9201 37.8683C15.6909 36.6983 7.77784 32.8112 1.65327 26.1995C7.7722 19.7599 15.5816 15.9223 23.7142 14.6935C19.5038 16.8228 16.6172 21.1893 16.6172 26.23ZM29.5372 38.15C36.1204 38.15 41.4572 32.8132 41.4572 26.23C41.4572 19.6467 36.1204 14.31 29.5372 14.31C22.954 14.31 17.6172 19.6467 17.6172 26.23C17.6172 32.8132 22.954 38.15 29.5372 38.15ZM31.9372 26.23C31.9372 27.5555 30.8627 28.63 29.5372 28.63C28.2117 28.63 27.1372 27.5555 27.1372 26.23C27.1372 24.9045 28.2117 23.83 29.5372 23.83C30.8627 23.83 31.9372 24.9045 31.9372 26.23ZM32.9372 26.23C32.9372 28.1077 31.415 29.63 29.5372 29.63C27.6594 29.63 26.1372 28.1077 26.1372 26.23C26.1372 24.3522 27.6594 22.83 29.5372 22.83C31.415 22.83 32.9372 24.3522 32.9372 26.23ZM30.2172 51.21C29.941 51.21 29.7172 50.9861 29.7172 50.71V40.51C29.7172 40.2338 29.941 40.01 30.2172 40.01C30.4933 40.01 30.7172 40.2338 30.7172 40.51V50.71C30.7172 50.9861 30.4933 51.21 30.2172 51.21ZM44.7972 46.35C44.5763 46.5156 44.2629 46.4709 44.0972 46.25L40.0172 40.81C39.8515 40.5891 39.8963 40.2757 40.1172 40.11C40.3381 39.9443 40.6515 39.989 40.8172 40.21L44.8972 45.65C45.0629 45.8709 45.0181 46.1843 44.7972 46.35ZM16.3172 46.35C16.0963 46.1843 16.0515 45.8709 16.2172 45.65L20.2972 40.21C20.4629 39.989 20.7763 39.9443 20.9972 40.11C21.2181 40.2757 21.2629 40.5891 21.0972 40.81L17.0172 46.25C16.8515 46.4709 16.5381 46.5156 16.3172 46.35Z" fill="#31912D"/>
</svg>
